<svg xmlns="http://www.w3.org/2000/svg" xmlns:xlink="http://www.w3.org/1999/xlink" width="940" height="494.2"><rect width="940" height="494.2" rx="5" ry="5" class="a"/><svg y="0%" x="0%"><circle cx="20" cy="20" r="6" fill="#ff5f58"/><circle cx="40" cy="20" r="6" fill="#ffbd2e"/><circle cx="60" cy="20" r="6" fill="#18c132"/></svg><svg height="434.2" viewBox="0 0 90 43.42" width="900" x="15" xmlns="http://www.w3.org/2000/svg" xmlns:xlink="http://www.w3.org/1999/xlink" y="50"><style>@keyframes m{0%{transform:translateX(0)}3.9%{transform:translateX(-90px)}4.1%{transform:translateX(-180px)}9.5%{transform:translateX(-270px)}11.1%{transform:translateX(-360px)}12.6%{transform:translateX(-450px)}14.1%{transform:translateX(-540px)}15%{transform:translateX(-630px)}16%{transform:translateX(-720px)}17.1%{transform:translateX(-900px)}17.5%{transform:translateX(-990px)}38.1%{transform:translateX(-1080px)}38.3%{transform:translateX(-1260px)}38.4%{transform:translateX(-1350px)}99.6%{transform:translateX(-1440px)}}.a{fill:#282d35}.g,.h,.i,.j{fill:#66c2cd;white-space:pre}.h,.i,.j{fill:#a8cc8c}.i,.j{fill:#b9c0cb}.j{fill:#dbab79;font-weight:700}</style><g font-family="Monaco,Consolas,Menlo,'Bitstream Vera Sans Mono','Powerline Symbols',monospace" font-size="1.67"><defs><symbol id="1"><text y="1.67" style="white-space:pre" fill="#71bef2">~</text></symbol><symbol id="2"><text y="1.67" class="g">❯</text><text x="2.004" y="1.67" class="h">paws</text></symbol><symbol id="3"><text y="1.67" class="g">❯</text><text x="2.004" y="1.67" class="h">paws</text><text x="7.014" y="1.67" class="i">-s</text></symbol><symbol id="4"><text y="1.67" class="j">Checking</text><text x="9.018" y="1.67" class="j">AWS</text><text x="13.026" y="1.67" class="j">SSO</text><text x="17.034" y="1.67" class="j">status...</text></symbol><symbol id="5"><text y="1.67" class="h">✓</text><text x="2.004" y="1.67" class="h">Authenticated</text></symbol><symbol id="6"><text x="2.004" y="1.67" class="i">Account:</text><text x="11.022" y="1.67" class="i">xxx</text></symbol><symbol id="7"><text x="2.004" y="1.67" class="i">User</text><text x="7.014" y="1.67" class="i">ID:</text><text x="11.022" y="1.67" class="i">xxx:tibor.rogulja@xxx.xx</text></symbol><symbol id="8"><text x="2.004" y="1.67" class="i">ARN:</text><text x="7.014" y="1.67" class="i">arn:aws:sts::xxx:assumed-role/AWS_Developer_xxx/tibor.rogulja@xxx.xx</text></symbol><symbol id="9"><text y="1.67" class="j">Session</text><text x="8.016" y="1.67" class="j">Details:</text></symbol><symbol id="10"><text x="2.004" y="1.67" class="i">Expires:</text><text x="11.022" y="1.67" class="i">2025-10-25T21:02:10Z</text></symbol><symbol id="11"><text x="2.004" y="1.67" class="h">Time</text><text x="7.014" y="1.67" class="h">remaining:</text><text x="18.036" y="1.67" class="h">6h</text><text x="21.042" y="1.67" class="h">51m</text></symbol><symbol id="a"><path fill="transparent" d="M0 0h90v20H0z"/></symbol><symbol id="b"><path fill="#6f7683" d="M0 0h1.102v2.171H0z"/></symbol></defs><path class="a" d="M0 0h90v43.42H0z"/><g style="animation-duration:4.978s;animation-iteration-count:infinite;animation-name:m;animation-timing-function:steps(1,end)"><svg width="1530"><svg><use xlink:href="#a"/><use xlink:href="#b" x="-.004"/></svg><svg x="90"><use xlink:href="#a"/><use xlink:href="#b" x="-.004"/></svg><svg x="180"><use xlink:href="#a"/><use xlink:href="#b" x="1.996" y="4.317"/><use xlink:href="#1" y="2.171"/><text y="6.012" class="g">❯</text></svg><svg x="270"><use xlink:href="#a"/><use xlink:href="#b" x="2.996" y="4.317"/><use xlink:href="#1" y="2.171"/><text y="6.012" class="g">❯</text><text x="2.004" y="6.012" class="h">p</text></svg><svg x="360"><use xlink:href="#a"/><use xlink:href="#b" x="3.996" y="4.317"/><use xlink:href="#1" y="2.171"/><text y="6.012" class="g">❯</text><text x="2.004" y="6.012" style="white-space:pre" fill="#b9c0cb" text-decoration="underline">pa</text></svg><svg x="450"><use xlink:href="#a"/><use xlink:href="#b" x="4.996" y="4.317"/><use xlink:href="#1" y="2.171"/><text y="6.012" class="g">❯</text><text x="2.004" y="6.012" style="white-space:pre" fill="#e88388" font-weight="700">paw</text></svg><svg x="540"><use xlink:href="#a"/><use xlink:href="#b" x="5.996" y="4.317"/><use xlink:href="#1" y="2.171"/><use xlink:href="#2" y="4.342"/></svg><svg x="630"><use xlink:href="#a"/><use xlink:href="#b" x="6.996" y="4.317"/><use xlink:href="#1" y="2.171"/><use xlink:href="#2" y="4.342"/></svg><svg x="720"><use xlink:href="#a"/><use xlink:href="#b" x="7.996" y="4.317"/><use xlink:href="#1" y="2.171"/><text y="6.012" class="g">❯</text><text x="2.004" y="6.012" class="h">paws</text><text x="7.014" y="6.012" class="i">-</text></svg><svg x="810"><use xlink:href="#a"/><use xlink:href="#b" x="8.996" y="4.317"/><use xlink:href="#1" y="2.171"/><use xlink:href="#3" y="4.342"/></svg><svg x="900"><use xlink:href="#a"/><use xlink:href="#b" x="-.004" y="6.488"/><use xlink:href="#1" y="2.171"/><use xlink:href="#3" y="4.342"/></svg><svg x="990"><use xlink:href="#a"/><use xlink:href="#b" x="-.004" y="10.83"/><use xlink:href="#1" y="2.171"/><use xlink:href="#3" y="4.342"/><use xlink:href="#4" y="6.513"/></svg><svg x="1080"><use xlink:href="#a"/><use xlink:href="#b" x="-.004" y="19.514"/><use xlink:href="#1" y="2.171"/><use xlink:href="#3" y="4.342"/><use xlink:href="#4" y="6.513"/><use xlink:href="#5" y="10.855"/><use xlink:href="#6" y="13.026"/><use xlink:href="#7" y="15.197"/><use xlink:href="#8" y="17.368"/></svg><svg x="1170"><use xlink:href="#a"/><use xlink:href="#b" x="-.004" y="23.856"/><use xlink:href="#1" y="2.171"/><use xlink:href="#3" y="4.342"/><use xlink:href="#4" y="6.513"/><use xlink:href="#5" y="10.855"/><use xlink:href="#6" y="13.026"/><use xlink:href="#7" y="15.197"/><use xlink:href="#8" y="17.368"/><use xlink:href="#9" y="21.71"/></svg><svg x="1260"><use xlink:href="#a"/><use xlink:href="#b" x="-.004" y="26.027"/><use xlink:href="#1" y="2.171"/><use xlink:href="#3" y="4.342"/><use xlink:href="#4" y="6.513"/><use xlink:href="#5" y="10.855"/><use xlink:href="#6" y="13.026"/><use xlink:href="#7" y="15.197"/><use xlink:href="#8" y="17.368"/><use xlink:href="#9" y="21.71"/><use xlink:href="#10" y="23.881"/></svg><svg x="1350"><use xlink:href="#a"/><use xlink:href="#b" x="-.004" y="28.198"/><use xlink:href="#1" y="2.171"/><use xlink:href="#3" y="4.342"/><use xlink:href="#4" y="6.513"/><use xlink:href="#5" y="10.855"/><use xlink:href="#6" y="13.026"/><use xlink:href="#7" y="15.197"/><use xlink:href="#8" y="17.368"/><use xlink:href="#9" y="21.71"/><use xlink:href="#10" y="23.881"/><use xlink:href="#11" y="26.052"/></svg><svg x="1440"><use xlink:href="#a"/><use xlink:href="#b" x="-.004" y="30.369"/><use xlink:href="#1" y="2.171"/><use xlink:href="#3" y="4.342"/><use xlink:href="#4" y="6.513"/><use xlink:href="#5" y="10.855"/><use xlink:href="#6" y="13.026"/><use xlink:href="#7" y="15.197"/><use xlink:href="#8" y="17.368"/><use xlink:href="#9" y="21.71"/><use xlink:href="#10" y="23.881"/><use xlink:href="#11" y="26.052"/></svg></svg></g></g></svg></svg>