<svg xmlns="http://www.w3.org/2000/svg" xmlns:xlink="http://www.w3.org/1999/xlink" width="1200" height="733.01"><rect width="1200" height="733.01" rx="5" ry="5" class="a"/><svg y="0%" x="0%"><circle cx="20" cy="20" r="6" fill="#ff5f58"/><circle cx="40" cy="20" r="6" fill="#ffbd2e"/><circle cx="60" cy="20" r="6" fill="#18c132"/></svg><svg height="673.01" viewBox="0 0 116 67.301" width="1160" x="15" xmlns="http://www.w3.org/2000/svg" xmlns:xlink="http://www.w3.org/1999/xlink" y="50"><style>@keyframes m{0%{transform:translateX(0)}1%{transform:translateX(-116px)}2%{transform:translateX(-348px)}2.1%{transform:translateX(-812px)}3.3%{transform:translateX(-928px)}3.8%{transform:translateX(-1044px)}4.3%{transform:translateX(-1160px)}4.9%{transform:translateX(-1276px)}5.5%{transform:translateX(-1392px)}6%{transform:translateX(-1508px)}6.5%{transform:translateX(-1624px)}6.6%{transform:translateX(-1856px)}6.9%{transform:translateX(-2320px)}7.2%{transform:translateX(-2668px)}17.3%{transform:translateX(-2784px)}17.7%{transform:translateX(-2900px)}18.4%{transform:translateX(-3016px)}19%{transform:translateX(-3364px)}20.8%{transform:translateX(-3944px)}21%{transform:translateX(-4292px)}31.8%{transform:translateX(-4408px)}32.4%{transform:translateX(-4524px)}33.3%{transform:translateX(-4640px)}38.4%{transform:translateX(-4756px)}38.5%{transform:translateX(-4988px)}39.4%{transform:translateX(-5104px)}40.3%{transform:translateX(-5568px)}41%{transform:translateX(-5684px)}41.1%{transform:translateX(-5916px)}99.8%{transform:translateX(-6032px)}}.a{fill:#282d35}.f,.g,.h,.i{fill:#71bef2;white-space:pre}.g,.h,.i{fill:#66c2cd}.h,.i{fill:#a8cc8c}.i{fill:#b9c0cb}</style><g font-family="Monaco,Consolas,Menlo,'Bitstream Vera Sans Mono','Powerline Symbols',monospace" font-size="1.67"><defs><symbol id="1"><text y="1.67" class="f">~</text></symbol><symbol id="2"><text y="1.67" class="g">❯</text></symbol><symbol id="3"><text y="1.67" class="g">❯</text><text x="2.004" y="1.67" class="h">z</text></symbol><symbol id="4"><text y="1.67" class="g">❯</text><text x="2.004" y="1.67" class="h">z</text><text x="4.008" y="1.67" class="i">app1</text></symbol><symbol id="5"><text y="1.67" class="f">app1</text></symbol><symbol id="6"><text y="1.67" class="g">❯</text><text x="2.004" y="1.67" class="h">gst</text></symbol><symbol id="7"><text y="1.67" class="i">On</text><text x="3.006" y="1.67" class="i">branch</text><text x="10.02" y="1.67" class="i">fix/add-thumbs-to-agent-chat</text></symbol><symbol id="8"><text y="1.67" class="i">Your</text><text x="5.01" y="1.67" class="i">branch</text><text x="12.024" y="1.67" class="i">is</text><text x="15.03" y="1.67" class="i">up</text><text x="18.036" y="1.67" class="i">to</text><text x="21.042" y="1.67" class="i">date</text><text x="26.052" y="1.67" class="i">with</text><text x="31.062" y="1.67" class="i">&apos;origin/fix/add-thumbs-to-agent-chat&apos;.</text></symbol><symbol id="9"><text y="1.67" class="i">nothing</text><text x="8.016" y="1.67" class="i">to</text><text x="11.022" y="1.67" class="i">commit,</text><text x="19.038" y="1.67" class="i">working</text><text x="27.054" y="1.67" class="i">tree</text><text x="32.064" y="1.67" class="i">clean</text></symbol><symbol id="10"><text y="1.67" class="g">❯</text><text x="2.004" y="1.67" class="h">pci</text></symbol><symbol id="11"><text y="1.67" class="h">Opening</text><text x="8.016" y="1.67" class="h">CI</text><text x="11.022" y="1.67" class="h">Workflow</text><text x="20.04" y="1.67" class="h">for</text><text x="24.048" y="1.67" class="h">branch:</text><text x="32.064" y="1.67" style="white-space:pre" fill="#dbab79" font-weight="700">fix/add-thumbs-to-agent-chat</text></symbol><symbol id="12"><text y="1.67" class="i">https://xxx/projects/frontend/schedulers/xxx/just_run?branch=fix/add-thumbs-to-agent-chat</text></symbol><symbol id="a"><path fill="transparent" d="M0 0h116v31H0z"/></symbol><symbol id="b"><path fill="#6f7683" d="M0 0h1.102v2.171H0z"/></symbol></defs><path class="a" d="M0 0h116v67.301H0z"/><g style="animation-duration:10.081s;animation-iteration-count:infinite;animation-name:m;animation-timing-function:steps(1,end)"><svg width="6148"><svg><use xlink:href="#a"/><use xlink:href="#b" x="-.004"/></svg><svg x="116"><use xlink:href="#a"/><use xlink:href="#b" x="-.004"/></svg><svg x="232"><use xlink:href="#a"/><use xlink:href="#b" x="-.004"/></svg><svg x="348"><use xlink:href="#a"/><use xlink:href="#b" x="-.004"/></svg><svg x="464"><use xlink:href="#a"/><use xlink:href="#b" x="-.004"/></svg><svg x="580"><use xlink:href="#a"/><use xlink:href="#b" x="1.996" y="4.317"/><use xlink:href="#1" y="2.171"/><use xlink:href="#2" y="4.342"/></svg><svg x="696"><use xlink:href="#a"/><use xlink:href="#b" x="1.996" y="4.317"/><use xlink:href="#1" y="2.171"/><use xlink:href="#2" y="4.342"/></svg><svg x="812"><use xlink:href="#a"/><use xlink:href="#b" x="1.996" y="4.317"/><use xlink:href="#1" y="2.171"/><use xlink:href="#2" y="4.342"/></svg><svg x="928"><use xlink:href="#a"/><use xlink:href="#b" x="2.996" y="4.317"/><use xlink:href="#1" y="2.171"/><use xlink:href="#3" y="4.342"/></svg><svg x="1044"><use xlink:href="#a"/><use xlink:href="#b" x="3.996" y="4.317"/><use xlink:href="#1" y="2.171"/><use xlink:href="#3" y="4.342"/></svg><svg x="1160"><use xlink:href="#a"/><use xlink:href="#b" x="4.996" y="4.317"/><use xlink:href="#1" y="2.171"/><text y="6.012" class="g">❯</text><text x="2.004" y="6.012" class="h">z</text><text x="4.008" y="6.012" style="white-space:pre" fill="#b9c0cb" text-decoration="underline">a</text></svg><svg x="1276"><use xlink:href="#a"/><use xlink:href="#b" x="5.996" y="4.317"/><use xlink:href="#1" y="2.171"/><text y="6.012" class="g">❯</text><text x="2.004" y="6.012" class="h">z</text><text x="4.008" y="6.012" class="i">ap</text></svg><svg x="1392"><use xlink:href="#a"/><use xlink:href="#b" x="6.996" y="4.317"/><use xlink:href="#1" y="2.171"/><text y="6.012" class="g">❯</text><text x="2.004" y="6.012" class="h">z</text><text x="4.008" y="6.012" class="i">app</text></svg><svg x="1508"><use xlink:href="#a"/><use xlink:href="#b" x="7.996" y="4.317"/><use xlink:href="#1" y="2.171"/><use xlink:href="#4" y="4.342"/></svg><svg x="1624"><use xlink:href="#a"/><use xlink:href="#b" x="7.996" y="4.317"/><use xlink:href="#1" y="2.171"/><use xlink:href="#4" y="4.342"/></svg><svg x="1740"><use xlink:href="#a"/><use xlink:href="#b" x="-.004" y="6.488"/><use xlink:href="#1" y="2.171"/><use xlink:href="#4" y="4.342"/></svg><svg x="1856"><use xlink:href="#a"/><use xlink:href="#b" x="-.004" y="6.488"/><use xlink:href="#1" y="2.171"/><use xlink:href="#4" y="4.342"/></svg><svg x="1972"><use xlink:href="#a"/><use xlink:href="#b" x="-.004" y="6.488"/><use xlink:href="#1" y="2.171"/><use xlink:href="#4" y="4.342"/></svg><svg x="2088"><use xlink:href="#a"/><use xlink:href="#b" x="-.004" y="6.488"/><use xlink:href="#1" y="2.171"/><use xlink:href="#4" y="4.342"/></svg><svg x="2204"><use xlink:href="#a"/><use xlink:href="#b" x="-.004" y="6.488"/><use xlink:href="#1" y="2.171"/><use xlink:href="#4" y="4.342"/></svg><svg x="2320"><use xlink:href="#a"/><use xlink:href="#b" x="-.004" y="6.488"/><use xlink:href="#1" y="2.171"/><use xlink:href="#4" y="4.342"/></svg><svg x="2436"><use xlink:href="#a"/><use xlink:href="#b" x="1.996" y="10.83"/><use xlink:href="#1" y="2.171"/><use xlink:href="#4" y="4.342"/><use xlink:href="#5" y="8.684"/><use xlink:href="#2" y="10.855"/></svg><svg x="2552"><use xlink:href="#a"/><use xlink:href="#b" x="1.996" y="10.83"/><use xlink:href="#1" y="2.171"/><use xlink:href="#4" y="4.342"/><use xlink:href="#5" y="8.684"/><use xlink:href="#2" y="10.855"/></svg><svg x="2668"><use xlink:href="#a"/><use xlink:href="#b" x="1.996" y="10.83"/><use xlink:href="#1" y="2.171"/><use xlink:href="#4" y="4.342"/><use xlink:href="#5" y="8.684"/><use xlink:href="#2" y="10.855"/></svg><svg x="2784"><use xlink:href="#a"/><use xlink:href="#b" x="2.996" y="10.83"/><use xlink:href="#1" y="2.171"/><use xlink:href="#4" y="4.342"/><use xlink:href="#5" y="8.684"/><text y="12.525" class="g">❯</text><text x="2.004" y="12.525" class="h">g</text></svg><svg x="2900"><use xlink:href="#a"/><use xlink:href="#b" x="3.996" y="10.83"/><use xlink:href="#1" y="2.171"/><use xlink:href="#4" y="4.342"/><use xlink:href="#5" y="8.684"/><text y="12.525" class="g">❯</text><text x="2.004" y="12.525" class="h">gs</text></svg><svg x="3016"><use xlink:href="#a"/><use xlink:href="#b" x="4.996" y="10.83"/><use xlink:href="#1" y="2.171"/><use xlink:href="#4" y="4.342"/><use xlink:href="#5" y="8.684"/><use xlink:href="#6" y="10.855"/></svg><svg x="3132"><use xlink:href="#a"/><use xlink:href="#b" x="4.996" y="10.83"/><use xlink:href="#1" y="2.171"/><use xlink:href="#4" y="4.342"/><use xlink:href="#5" y="8.684"/><use xlink:href="#6" y="10.855"/></svg><svg x="3248"><use xlink:href="#a"/><use xlink:href="#b" x="-.004" y="13.001"/><use xlink:href="#1" y="2.171"/><use xlink:href="#4" y="4.342"/><use xlink:href="#5" y="8.684"/><use xlink:href="#6" y="10.855"/></svg><svg x="3364"><use xlink:href="#a"/><use xlink:href="#b" x="-.004" y="13.001"/><use xlink:href="#1" y="2.171"/><use xlink:href="#4" y="4.342"/><use xlink:href="#5" y="8.684"/><use xlink:href="#6" y="10.855"/></svg><svg x="3480"><use xlink:href="#a"/><use xlink:href="#b" x="-.004" y="15.172"/><use xlink:href="#1" y="2.171"/><use xlink:href="#4" y="4.342"/><use xlink:href="#5" y="8.684"/><use xlink:href="#6" y="10.855"/><use xlink:href="#7" y="13.026"/></svg><svg x="3596"><use xlink:href="#a"/><use xlink:href="#b" x="-.004" y="21.685"/><use xlink:href="#1" y="2.171"/><use xlink:href="#4" y="4.342"/><use xlink:href="#5" y="8.684"/><use xlink:href="#6" y="10.855"/><use xlink:href="#7" y="13.026"/><use xlink:href="#8" y="15.197"/><use xlink:href="#9" y="19.539"/></svg><svg x="3712"><use xlink:href="#a"/><use xlink:href="#b" x="-.004" y="21.685"/><use xlink:href="#1" y="2.171"/><use xlink:href="#4" y="4.342"/><use xlink:href="#5" y="8.684"/><use xlink:href="#6" y="10.855"/><use xlink:href="#7" y="13.026"/><use xlink:href="#8" y="15.197"/><use xlink:href="#9" y="19.539"/></svg><svg x="3828"><use xlink:href="#a"/><use xlink:href="#b" x="-.004" y="21.685"/><use xlink:href="#1" y="2.171"/><use xlink:href="#4" y="4.342"/><use xlink:href="#5" y="8.684"/><use xlink:href="#6" y="10.855"/><use xlink:href="#7" y="13.026"/><use xlink:href="#8" y="15.197"/><use xlink:href="#9" y="19.539"/></svg><svg x="3944"><use xlink:href="#a"/><use xlink:href="#b" x="-.004" y="21.685"/><use xlink:href="#1" y="2.171"/><use xlink:href="#4" y="4.342"/><use xlink:href="#5" y="8.684"/><use xlink:href="#6" y="10.855"/><use xlink:href="#7" y="13.026"/><use xlink:href="#8" y="15.197"/><use xlink:href="#9" y="19.539"/></svg><svg x="4060"><use xlink:href="#a"/><use xlink:href="#b" x="1.996" y="26.027"/><use xlink:href="#1" y="2.171"/><use xlink:href="#4" y="4.342"/><use xlink:href="#5" y="8.684"/><use xlink:href="#6" y="10.855"/><use xlink:href="#7" y="13.026"/><use xlink:href="#8" y="15.197"/><use xlink:href="#9" y="19.539"/><use xlink:href="#5" y="23.881"/><use xlink:href="#2" y="26.052"/></svg><svg x="4176"><use xlink:href="#a"/><use xlink:href="#b" x="1.996" y="26.027"/><use xlink:href="#1" y="2.171"/><use xlink:href="#4" y="4.342"/><use xlink:href="#5" y="8.684"/><use xlink:href="#6" y="10.855"/><use xlink:href="#7" y="13.026"/><use xlink:href="#8" y="15.197"/><use xlink:href="#9" y="19.539"/><use xlink:href="#5" y="23.881"/><use xlink:href="#2" y="26.052"/></svg><svg x="4292"><use xlink:href="#a"/><use xlink:href="#b" x="1.996" y="26.027"/><use xlink:href="#1" y="2.171"/><use xlink:href="#4" y="4.342"/><use xlink:href="#5" y="8.684"/><use xlink:href="#6" y="10.855"/><use xlink:href="#7" y="13.026"/><use xlink:href="#8" y="15.197"/><use xlink:href="#9" y="19.539"/><use xlink:href="#5" y="23.881"/><use xlink:href="#2" y="26.052"/></svg><svg x="4408"><use xlink:href="#a"/><use xlink:href="#b" x="2.996" y="26.027"/><use xlink:href="#1" y="2.171"/><use xlink:href="#4" y="4.342"/><use xlink:href="#5" y="8.684"/><use xlink:href="#6" y="10.855"/><use xlink:href="#7" y="13.026"/><use xlink:href="#8" y="15.197"/><use xlink:href="#9" y="19.539"/><use xlink:href="#5" y="23.881"/><text y="27.722" class="g">❯</text><text x="2.004" y="27.722" class="h">p</text></svg><svg x="4524"><use xlink:href="#a"/><use xlink:href="#b" x="3.996" y="26.027"/><use xlink:href="#1" y="2.171"/><use xlink:href="#4" y="4.342"/><use xlink:href="#5" y="8.684"/><use xlink:href="#6" y="10.855"/><use xlink:href="#7" y="13.026"/><use xlink:href="#8" y="15.197"/><use xlink:href="#9" y="19.539"/><use xlink:href="#5" y="23.881"/><text y="27.722" class="g">❯</text><text x="2.004" y="27.722" style="white-space:pre" fill="#e88388" font-weight="700">pc</text></svg><svg x="4640"><use xlink:href="#a"/><use xlink:href="#b" x="4.996" y="26.027"/><use xlink:href="#1" y="2.171"/><use xlink:href="#4" y="4.342"/><use xlink:href="#5" y="8.684"/><use xlink:href="#6" y="10.855"/><use xlink:href="#7" y="13.026"/><use xlink:href="#8" y="15.197"/><use xlink:href="#9" y="19.539"/><use xlink:href="#5" y="23.881"/><use xlink:href="#10" y="26.052"/></svg><svg x="4756"><use xlink:href="#a"/><use xlink:href="#b" x="4.996" y="26.027"/><use xlink:href="#1" y="2.171"/><use xlink:href="#4" y="4.342"/><use xlink:href="#5" y="8.684"/><use xlink:href="#6" y="10.855"/><use xlink:href="#7" y="13.026"/><use xlink:href="#8" y="15.197"/><use xlink:href="#9" y="19.539"/><use xlink:href="#5" y="23.881"/><use xlink:href="#10" y="26.052"/></svg><svg x="4872"><use xlink:href="#a"/><use xlink:href="#b" x="-.004" y="28.198"/><use xlink:href="#1" y="2.171"/><use xlink:href="#4" y="4.342"/><use xlink:href="#5" y="8.684"/><use xlink:href="#6" y="10.855"/><use xlink:href="#7" y="13.026"/><use xlink:href="#8" y="15.197"/><use xlink:href="#9" y="19.539"/><use xlink:href="#5" y="23.881"/><use xlink:href="#10" y="26.052"/></svg><svg x="4988"><use xlink:href="#a"/><use xlink:href="#b" x="-.004" y="28.198"/><use xlink:href="#1" y="2.171"/><use xlink:href="#4" y="4.342"/><use xlink:href="#5" y="8.684"/><use xlink:href="#6" y="10.855"/><use xlink:href="#7" y="13.026"/><use xlink:href="#8" y="15.197"/><use xlink:href="#9" y="19.539"/><use xlink:href="#5" y="23.881"/><use xlink:href="#10" y="26.052"/></svg><svg x="5104"><use xlink:href="#a"/><use xlink:href="#b" x="-.004" y="32.54"/><use xlink:href="#1" y="2.171"/><use xlink:href="#4" y="4.342"/><use xlink:href="#5" y="8.684"/><use xlink:href="#6" y="10.855"/><use xlink:href="#7" y="13.026"/><use xlink:href="#8" y="15.197"/><use xlink:href="#9" y="19.539"/><use xlink:href="#5" y="23.881"/><use xlink:href="#10" y="26.052"/><use xlink:href="#11" y="28.223"/><use xlink:href="#12" y="30.394"/></svg><svg x="5220"><use xlink:href="#a"/><use xlink:href="#b" x="-.004" y="32.54"/><use xlink:href="#1" y="2.171"/><use xlink:href="#4" y="4.342"/><use xlink:href="#5" y="8.684"/><use xlink:href="#6" y="10.855"/><use xlink:href="#7" y="13.026"/><use xlink:href="#8" y="15.197"/><use xlink:href="#9" y="19.539"/><use xlink:href="#5" y="23.881"/><use xlink:href="#10" y="26.052"/><use xlink:href="#11" y="28.223"/><use xlink:href="#12" y="30.394"/></svg><svg x="5336"><use xlink:href="#a"/><use xlink:href="#b" x="-.004" y="32.54"/><use xlink:href="#1" y="2.171"/><use xlink:href="#4" y="4.342"/><use xlink:href="#5" y="8.684"/><use xlink:href="#6" y="10.855"/><use xlink:href="#7" y="13.026"/><use xlink:href="#8" y="15.197"/><use xlink:href="#9" y="19.539"/><use xlink:href="#5" y="23.881"/><use xlink:href="#10" y="26.052"/><use xlink:href="#11" y="28.223"/><use xlink:href="#12" y="30.394"/></svg><svg x="5452"><use xlink:href="#a"/><use xlink:href="#b" x="-.004" y="32.54"/><use xlink:href="#1" y="2.171"/><use xlink:href="#4" y="4.342"/><use xlink:href="#5" y="8.684"/><use xlink:href="#6" y="10.855"/><use xlink:href="#7" y="13.026"/><use xlink:href="#8" y="15.197"/><use xlink:href="#9" y="19.539"/><use xlink:href="#5" y="23.881"/><use xlink:href="#10" y="26.052"/><use xlink:href="#11" y="28.223"/><use xlink:href="#12" y="30.394"/></svg><svg x="5568"><use xlink:href="#a"/><use xlink:href="#b" x="-.004" y="32.54"/><use xlink:href="#1" y="2.171"/><use xlink:href="#4" y="4.342"/><use xlink:href="#5" y="8.684"/><use xlink:href="#6" y="10.855"/><use xlink:href="#7" y="13.026"/><use xlink:href="#8" y="15.197"/><use xlink:href="#9" y="19.539"/><use xlink:href="#5" y="23.881"/><use xlink:href="#10" y="26.052"/><use xlink:href="#11" y="28.223"/><use xlink:href="#12" y="30.394"/></svg><svg x="5684"><use xlink:href="#a"/><use xlink:href="#b" x="1.996" y="36.882"/><use xlink:href="#1" y="2.171"/><use xlink:href="#4" y="4.342"/><use xlink:href="#5" y="8.684"/><use xlink:href="#6" y="10.855"/><use xlink:href="#7" y="13.026"/><use xlink:href="#8" y="15.197"/><use xlink:href="#9" y="19.539"/><use xlink:href="#5" y="23.881"/><use xlink:href="#10" y="26.052"/><use xlink:href="#11" y="28.223"/><use xlink:href="#12" y="30.394"/><use xlink:href="#5" y="34.736"/><use xlink:href="#2" y="36.907"/></svg><svg x="5800"><use xlink:href="#a"/><use xlink:href="#b" x="1.996" y="36.882"/><use xlink:href="#1" y="2.171"/><use xlink:href="#4" y="4.342"/><use xlink:href="#5" y="8.684"/><use xlink:href="#6" y="10.855"/><use xlink:href="#7" y="13.026"/><use xlink:href="#8" y="15.197"/><use xlink:href="#9" y="19.539"/><use xlink:href="#5" y="23.881"/><use xlink:href="#10" y="26.052"/><use xlink:href="#11" y="28.223"/><use xlink:href="#12" y="30.394"/><use xlink:href="#5" y="34.736"/><use xlink:href="#2" y="36.907"/></svg><svg x="5916"><use xlink:href="#a"/><use xlink:href="#b" x="1.996" y="36.882"/><use xlink:href="#1" y="2.171"/><use xlink:href="#4" y="4.342"/><use xlink:href="#5" y="8.684"/><use xlink:href="#6" y="10.855"/><use xlink:href="#7" y="13.026"/><use xlink:href="#8" y="15.197"/><use xlink:href="#9" y="19.539"/><use xlink:href="#5" y="23.881"/><use xlink:href="#10" y="26.052"/><use xlink:href="#11" y="28.223"/><use xlink:href="#12" y="30.394"/><use xlink:href="#5" y="34.736"/><use xlink:href="#2" y="36.907"/></svg><svg x="6032"><use xlink:href="#a"/><use xlink:href="#b" x="-.004" y="39.053"/><use xlink:href="#1" y="2.171"/><use xlink:href="#4" y="4.342"/><use xlink:href="#5" y="8.684"/><use xlink:href="#6" y="10.855"/><use xlink:href="#7" y="13.026"/><use xlink:href="#8" y="15.197"/><use xlink:href="#9" y="19.539"/><use xlink:href="#5" y="23.881"/><use xlink:href="#10" y="26.052"/><use xlink:href="#11" y="28.223"/><use xlink:href="#12" y="30.394"/><use xlink:href="#5" y="34.736"/><use xlink:href="#2" y="36.907"/></svg></svg></g></g></svg></svg>